<?xml version="1.0" encoding="UTF-8" standalone="no"?>
<svg
   xmlns:dc="http://purl.org/dc/elements/1.1/"
   xmlns:cc="http://creativecommons.org/ns#"
   xmlns:rdf="http://www.w3.org/1999/02/22-rdf-syntax-ns#"
   xmlns:svg="http://www.w3.org/2000/svg"
   xmlns="http://www.w3.org/2000/svg"
   xmlns:xlink="http://www.w3.org/1999/xlink"
   xmlns:sodipodi="http://sodipodi.sourceforge.net/DTD/sodipodi-0.dtd"
   xmlns:inkscape="http://www.inkscape.org/namespaces/inkscape"
   width="600"
   height="480"
   viewBox="0 0 600 480"
   id="svg2"
   version="1.1"
   inkscape:version="0.48.4 r9939"
   sodipodi:docname="quic_plateaus.svg">
  <metadata
     id="metadata152">
    <rdf:RDF>
      <cc:Work
         rdf:about="">
        <dc:format>image/svg+xml</dc:format>
        <dc:type
           rdf:resource="http://purl.org/dc/dcmitype/StillImage" />
      </cc:Work>
    </rdf:RDF>
  </metadata>
  <defs
     id="defs150" />
  <sodipodi:namedview
     pagecolor="#ffffff"
     bordercolor="#666666"
     borderopacity="1"
     objecttolerance="10"
     gridtolerance="10"
     guidetolerance="10"
     inkscape:pageopacity="0"
     inkscape:pageshadow="2"
     inkscape:window-width="1920"
     inkscape:window-height="1124"
     id="namedview148"
     showgrid="false"
     inkscape:zoom="1.9666667"
     inkscape:cx="300"
     inkscape:cy="240"
     inkscape:window-x="0"
     inkscape:window-y="24"
     inkscape:window-maximized="1"
     inkscape:current-layer="g29" />
  <title
     id="title4">Gnuplot</title>
  <desc
     id="desc6">Produced by GNUPLOT 4.6 patchlevel 4 </desc>
  <g
     id="gnuplot_canvas">
    <rect
       x="0"
       y="0"
       width="600"
       height="480"
       fill="none"
       id="rect9" />
    <defs
       id="defs11">
      <circle
         id="gpDot"
         r="0.5"
         stroke-width="0.5" />
      <path
         id="gpPt0"
         stroke-width="0.222"
         stroke="currentColor"
         d="M-1,0 h2 M0,-1 v2" />
      <path
         id="gpPt1"
         stroke-width="0.222"
         stroke="currentColor"
         d="M-1,-1 L1,1 M1,-1 L-1,1" />
      <path
         id="gpPt2"
         stroke-width="0.222"
         stroke="currentColor"
         d="M-1,0 L1,0 M0,-1 L0,1 M-1,-1 L1,1 M-1,1 L1,-1" />
      <rect
         id="gpPt3"
         stroke-width="0.222"
         stroke="currentColor"
         x="-1"
         y="-1"
         width="2"
         height="2" />
      <rect
         id="gpPt4"
         stroke-width="0.222"
         stroke="currentColor"
         fill="currentColor"
         x="-1"
         y="-1"
         width="2"
         height="2" />
      <circle
         id="gpPt5"
         stroke-width="0.222"
         stroke="currentColor"
         cx="0"
         cy="0"
         r="1" />
      <use
         xlink:href="#gpPt5"
         id="gpPt6"
         fill="currentColor"
         stroke="none" />
      <path
         id="gpPt7"
         stroke-width="0.222"
         stroke="currentColor"
         d="M0,-1.33 L-1.33,0.67 L1.33,0.67 z" />
      <use
         xlink:href="#gpPt7"
         id="gpPt8"
         fill="currentColor"
         stroke="none" />
      <use
         xlink:href="#gpPt7"
         id="gpPt9"
         stroke="currentColor"
         transform="rotate(180)" />
      <use
         xlink:href="#gpPt9"
         id="gpPt10"
         fill="currentColor"
         stroke="none" />
      <use
         xlink:href="#gpPt3"
         id="gpPt11"
         stroke="currentColor"
         transform="rotate(45)" />
      <use
         xlink:href="#gpPt11"
         id="gpPt12"
         fill="currentColor"
         stroke="none" />
    </defs>
    <g
       style="fill:none; color:white; stroke:currentColor; stroke-width:1.00; stroke-linecap:round; stroke-linejoin:round"
       id="g27" />
    <g
       style="fill:none; color:black; stroke:currentColor; stroke-width:1.00; stroke-linecap:round; stroke-linejoin:round"
       id="g29">
      <path
         stroke="black"
         d="M88.5,422.4 L97.5,422.4 M575.0,422.4 L566.0,422.4  h0.01"
         id="path31" />
      <g
         transform="translate(80.2,428.8)"
         style="stroke:none; fill:black; font-family:Arial; font-size:17.00pt; text-anchor:end"
         id="g33">
        <text
           id="text35"> 0</text>
      </g>
      <path
         stroke="black"
         d="M88.5,354.3 L97.5,354.3 M575.0,354.3 L566.0,354.3  h0.01"
         id="path37" />
      <g
         transform="translate(86.2,360.7)"
         style="font-size:21.25px;text-anchor:end;fill:#000000;stroke:none;font-family:Arial"
         id="g39">
        <text
           id="text41">10000</text>
      </g>
      <path
         stroke="black"
         d="M88.5,286.3 L97.5,286.3 M575.0,286.3 L566.0,286.3  h0.01"
         id="path43" />
      <g
         transform="translate(86.2,292.7)"
         style="font-size:21.25px;text-anchor:end;fill:#000000;stroke:none;font-family:Arial"
         id="g45">
        <text
           id="text47">20000</text>
      </g>
      <path
         stroke="black"
         d="M88.5,218.2 L97.5,218.2 M575.0,218.2 L566.0,218.2  h0.01"
         id="path49" />
      <g
         transform="translate(86.2,224.6)"
         style="font-size:21.25px;text-anchor:end;fill:#000000;stroke:none;font-family:Arial"
         id="g51">
        <text
           id="text53">30000</text>
      </g>
      <path
         stroke="black"
         d="M88.5,150.1 L97.5,150.1 M575.0,150.1 L566.0,150.1  h0.01"
         id="path55" />
      <g
         transform="translate(86.2,156.5)"
         style="font-size:21.25px;text-anchor:end;fill:#000000;stroke:none;font-family:Arial"
         id="g57">
        <text
           id="text59">40000</text>
      </g>
      <path
         stroke="black"
         d="M88.5,422.4 L88.5,413.4 M88.5,150.1 L88.5,159.1  h0.01"
         id="path61" />
      <g
         transform="translate(88.5,446.8)"
         style="stroke:none; fill:black; font-family:Arial; font-size:17.00pt; text-anchor:middle"
         id="g63">
        <text
           id="text65"> 0</text>
      </g>
      <path
         stroke="black"
         d="M185.8,422.4 L185.8,413.4 M185.8,150.1 L185.8,159.1  h0.01"
         id="path67" />
      <g
         transform="translate(185.8,446.8)"
         style="stroke:none; fill:black; font-family:Arial; font-size:17.00pt; text-anchor:middle"
         id="g69">
        <text
           id="text71"> 5</text>
      </g>
      <path
         stroke="black"
         d="M283.1,422.4 L283.1,413.4 M283.1,150.1 L283.1,159.1  h0.01"
         id="path73" />
      <g
         transform="translate(283.1,446.8)"
         style="stroke:none; fill:black; font-family:Arial; font-size:17.00pt; text-anchor:middle"
         id="g75">
        <text
           id="text77"> 10</text>
      </g>
      <path
         stroke="black"
         d="M380.4,422.4 L380.4,413.4 M380.4,150.1 L380.4,159.1  h0.01"
         id="path79" />
      <g
         transform="translate(380.4,446.8)"
         style="stroke:none; fill:black; font-family:Arial; font-size:17.00pt; text-anchor:middle"
         id="g81">
        <text
           id="text83"> 15</text>
      </g>
      <path
         stroke="black"
         d="M477.7,422.4 L477.7,413.4 M477.7,150.1 L477.7,159.1  h0.01"
         id="path85" />
      <g
         transform="translate(477.7,446.8)"
         style="stroke:none; fill:black; font-family:Arial; font-size:17.00pt; text-anchor:middle"
         id="g87">
        <text
           id="text89"> 20</text>
      </g>
      <path
         stroke="black"
         d="M575.0,422.4 L575.0,413.4 M575.0,150.1 L575.0,159.1  h0.01"
         id="path91" />
      <g
         transform="translate(575.0,446.8)"
         style="stroke:none; fill:black; font-family:Arial; font-size:17.00pt; text-anchor:middle"
         id="g93">
        <text
           id="text95"> 25</text>
      </g>
      <path
         stroke="black"
         d="M88.5,150.1 L88.5,422.4 L575.0,422.4 L575.0,150.1 L88.5,150.1 Z  h0.01"
         id="path97" />
      <g
         transform="matrix(0,-1,1,0,17.5,286.3)"
         style="font-size:21.25px;text-anchor:middle;fill:#000000;stroke:none;font-family:Arial"
         id="g99">
        <text
           id="text101">Median Page Load Time (ms)</text>
      </g>
      <g
         transform="translate(331.7,473.8)"
         style="stroke:none; fill:black; font-family:Arial; font-size:17.00pt; text-anchor:middle"
         id="g103">
        <text
           id="text105">Link Speed (Mbits/sec)</text>
      </g>
      <g
         transform="translate(331.7,131.3)"
         style="stroke:none; fill:black; font-family:Arial; font-size:22.00pt; text-anchor:middle"
         id="g107">
        <text
           id="text109">QUIC</text>
      </g>
    </g>
    <g
       id="gnuplot_plot_1">
      <title
         id="title112">gnuplot_plot_1</title>
      <g
         style="fill:none; color:red; stroke:currentColor; stroke-width:1.00; stroke-linecap:round; stroke-linejoin:round"
         id="g114">
        <g
           transform="translate(507.9,180.5)"
           style="stroke:none; fill:black; font-family:Arial; font-size:21.00pt; text-anchor:end"
           id="g116">
          <text
             id="text118">30 ms min RTT</text>
        </g>
        <path
           d="M516.2,172.6 L558.4,172.6 M92.4,340.7 L95.2,341.5 L99.9,360.6 L108.0,380.3 L121.8,388.1 L145.4,394.7    L185.8,397.2 L254.9,397.2 L373.0,396.3 L575.0,399.1  h0.01"
           id="path120" />
      </g>
    </g>
    <g
       id="gnuplot_plot_2">
      <title
         id="title123">gnuplot_plot_2</title>
      <g
         style="fill:none; color:green; stroke:currentColor; stroke-width:1.00; stroke-linecap:round; stroke-linejoin:round"
         id="g125">
        <g
           transform="translate(507.9,207.5)"
           style="stroke:none; fill:black; font-family:Arial; font-size:21.00pt; text-anchor:end"
           id="g127">
          <text
             id="text129">120 ms min RTT</text>
        </g>
        <path
           stroke-dasharray=" 5,8"
           d="M516.2,199.6 L558.4,199.6 M92.4,224.4 L95.2,306.3 L99.9,351.9 L108.0,369.7 L121.8,379.6 L145.4,387.5    L185.8,387.6 L254.9,388.8 L373.0,388.0 L575.0,386.9  h0.01"
           id="path131" />
      </g>
    </g>
    <g
       id="gnuplot_plot_3">
      <title
         id="title134">gnuplot_plot_3</title>
      <g
         style="fill:none; color:blue; stroke:currentColor; stroke-width:1.00; stroke-linecap:round; stroke-linejoin:round"
         id="g136">
        <g
           transform="translate(507.9,234.5)"
           style="stroke:none; fill:black; font-family:Arial; font-size:21.00pt; text-anchor:end"
           id="g138">
          <text
             id="text140">300 ms min RTT</text>
        </g>
        <path
           stroke-dasharray=" 2,4"
           d="M516.2,226.6 L558.4,226.6 M92.4,239.3 L95.2,300.6 L99.9,325.5 L108.0,342.8 L121.8,358.0 L145.4,364.6    L185.8,365.2 L254.9,365.7 L373.0,361.8 L575.0,361.4  h0.01"
           id="path142" />
      </g>
    </g>
    <g
       style="fill:none; color:black; stroke:currentColor; stroke-width:1.00; stroke-linecap:round; stroke-linejoin:round"
       id="g144">
      <path
         stroke="black"
         d="M88.5,150.1 L88.5,422.4 L575.0,422.4 L575.0,150.1 L88.5,150.1 Z  h0.01"
         id="path146" />
    </g>
  </g>
</svg>
